HIERARCHY
ROOT Hips
{
 OFFSET 0.000000 0.000000 0.000000
 CHANNELS 6 Xposition Yposition Zposition Yrotation Xrotation Zrotation
 JOINT Chest
 {
  OFFSET 0.000000 9.303000 0.001900
  CHANNELS 3 Yrotation Xrotation Zrotation
  JOINT Chest2
  {
   OFFSET 0.000000 9.301100 -0.003900
   CHANNELS 3 Yrotation Xrotation Zrotation
   JOINT Chest3
   {
    OFFSET 0.000000 9.262800 0.000000
    CHANNELS 3 Yrotation Xrotation Zrotation
    JOINT Chest4
    {
     OFFSET 0.000000 9.253300 0.000000
     CHANNELS 3 Yrotation Xrotation Zrotation
     JOINT Neck
     {
      OFFSET 0.000000 14.010300 0.000000
      CHANNELS 3 Yrotation Xrotation Zrotation
      JOINT Head
      {
       OFFSET 0.000000 8.657600 -0.008300
       CHANNELS 3 Yrotation Xrotation Zrotation
       End Site
       {
        OFFSET 0.000000 16.540200 -0.004400
       }
      }
     }
     JOINT RightCollar
     {
      OFFSET -2.834100 9.267700 0.000000
      CHANNELS 3 Yrotation Xrotation Zrotation
      JOINT RightShoulder
      {
       OFFSET -13.135200 0.000000 0.000000
       CHANNELS 3 Yrotation Xrotation Zrotation
       JOINT RightElbow
       {
        OFFSET 0.000000 -28.893500 0.000000
        CHANNELS 3 Yrotation Xrotation Zrotation
        JOINT RightWrist
        {
         OFFSET 0.000000 -23.344000 0.000000
         CHANNELS 3 Yrotation Xrotation Zrotation
         End Site
         {
          OFFSET 0.000000 -17.223000 0.000000
         }
        }
       }
      }
     }
     JOINT LeftCollar
     {
      OFFSET 2.834100 9.267700 0.000000
      CHANNELS 3 Yrotation Xrotation Zrotation
      JOINT LeftShoulder
      {
       OFFSET 13.135200 0.000000 0.000000
       CHANNELS 3 Yrotation Xrotation Zrotation
       JOINT LeftElbow
       {
        OFFSET 0.000000 -28.893500 0.000000
        CHANNELS 3 Yrotation Xrotation Zrotation
        JOINT LeftWrist
        {
         OFFSET 0.000000 -23.344000 0.000000
         CHANNELS 3 Yrotation Xrotation Zrotation
         End Site
         {
          OFFSET 0.000000 -17.223000 0.000000
         }
        }
       }
      }
     }
    }
   }
  }
 }
 JOINT RightHip
 {
  OFFSET -7.547200 -0.009500 -0.001000
  CHANNELS 3 Yrotation Xrotation Zrotation
  JOINT RightKnee
  {
   OFFSET 0.000000 -39.762800 0.000900
   CHANNELS 3 Yrotation Xrotation Zrotation
   JOINT RightAnkle
   {
    OFFSET 0.000000 -38.588200 0.001600
    CHANNELS 3 Yrotation Xrotation Zrotation
    JOINT RightToe
    {
     OFFSET 0.000000 -4.693300 10.419700
     CHANNELS 3 Yrotation Xrotation Zrotation
     End Site
     {
      OFFSET 0.000000 -1.379900 5.669300
     }
    }
   }
  }
 }
 JOINT LeftHip
 {
  OFFSET 7.547200 -0.009500 -0.001000
  CHANNELS 3 Yrotation Xrotation Zrotation
  JOINT LeftKnee
  {
   OFFSET 0.000000 -39.762800 0.000900
   CHANNELS 3 Yrotation Xrotation Zrotation
   JOINT LeftAnkle
   {
    OFFSET 0.000000 -38.588200 0.001600
    CHANNELS 3 Yrotation Xrotation Zrotation
    JOINT LeftToe
    {
     OFFSET 0.000000 -4.693300 10.419700
     CHANNELS 3 Yrotation Xrotation Zrotation
     End Site
     {
      OFFSET 0.000000 -1.379900 5.669300
     }
    }
   }
  }
 }
}
MOTION
Frames: 7
Frame Time: 0.008333
0.000000 82.880600 0.000000 0.000000 -5.767877 0.000000 0.000000 11.653817 0.000000 0.000000 -5.885947 0.000000 0.000000 -0.000000 0.000000 0.000000 -0.000000 0.000000 0.000000 12.528835 0.000000 0.000000 0.711642 0.000000 0.000000 -0.000000 0.000000 0.000000 0.000000 -90.000000 0.000000 -2.309062 0.000000 0.000000 2.309062 0.000000 0.000000 -0.000000 0.000000 0.000000 -0.000000 90.000000 0.000000 -2.309062 0.000000 0.000000 2.309062 0.000000 0.000000 8.520406 0.000000 0.000000 1.905762 0.000000 -0.000000 -4.658285 0.000000 0.000000 -0.000000 0.000000 0.000000 8.520406 0.000000 0.000000 1.905762 0.000000 -0.000000 -4.658285 0.000000 0.000000 -0.000000 0.000000
-6.373738 45.779135 24.344784 161.912750 -12.981907 0.288990 3.452732 8.008267 0.284572 0.175779 0.418601 0.016107 0.308178 0.726403 0.029862 3.237441 7.487346 0.489714 -1.669385 22.354889 -0.417617 -1.691224 -1.810163 -0.071683 4.581748 2.248986 -1.837800 -1.874003 -15.721876 -4.232475 -36.283934 -77.035942 48.290270 -11.574064 -8.839550 -25.836990 -10.389971 -0.888253 -5.215020 14.528838 -14.267489 10.909716 54.426241 -61.418466 -72.497258 9.687981 -7.638993 19.286404 -20.078368 -75.107793 17.191355 -97.381084 84.946757 -100.082862 -7.495076 -7.845625 -0.746323 0.042721 -0.215143 0.024066 2.836876 -74.795406 13.741447 78.568385 76.701979 76.351459 -10.761975 -5.387469 3.356428 0.066576 0.295669 0.029751
-6.374600 45.779342 24.343969 161.911893 -12.982093 0.287508 3.458392 8.003371 0.287050 0.171972 0.422179 0.015153 0.314833 0.719079 0.029753 3.234568 7.489756 0.490667 -1.666536 22.360254 -0.421124 -1.688588 -1.807405 -0.071626 4.583253 2.253434 -1.835634 -1.874250 -15.724498 -4.232180 -36.307918 -77.047126 48.314543 -11.588847 -8.841480 -25.824451 -10.387754 -0.881550 -5.210813 14.531317 -14.271098 10.898746 54.421960 -61.428063 -72.494492 9.693529 -7.633176 19.286322 -20.081369 -75.108619 17.193736 -97.408224 84.946148 -100.111532 -7.470132 -7.843458 -0.747770 0.047813 -0.215822 0.025179 2.841688 -74.793717 13.737027 78.558909 76.699996 76.344270 -10.760859 -5.391051 3.354142 0.066340 0.298575 0.031380
-6.376004 45.779800 24.341787 161.920396 -12.989427 0.288378 3.454153 8.004668 0.285097 0.173270 0.423053 0.017123 0.313168 0.717774 0.027781 3.232851 7.488831 0.490856 -1.657018 22.364346 -0.420466 -1.680252 -1.795528 -0.074860 4.587560 2.259844 -1.833828 -1.877242 -15.726227 -4.231963 -36.310414 -77.049250 48.312856 -11.591286 -8.844934 -25.814863 -10.383076 -0.873793 -5.207673 14.528636 -14.272624 10.891637 54.421195 -61.434013 -72.491208 9.696137 -7.630654 19.286557 -20.070902 -75.103779 17.173734 -97.446048 84.944199 -100.149781 -7.467100 -7.842930 -0.748891 0.048827 -0.217442 0.026220 2.853343 -74.783371 13.718445 78.553262 76.697198 76.338307 -10.762744 -5.395569 3.350705 0.070955 0.301932 0.036524
-6.378160 45.780070 24.340078 161.925695 -12.992769 0.292493 3.450046 8.003742 0.280021 0.176800 0.420541 0.015799 0.309349 0.719033 0.029611 3.231868 7.490814 0.490687 -1.653122 22.366292 -0.419935 -1.678968 -1.789754 -0.074157 4.602501 2.260281 -1.830265 -1.890713 -15.723309 -4.234511 -36.327842 -77.057657 48.336089 -11.592337 -8.844914 -25.815719 -10.380424 -0.869782 -5.206467 14.529672 -14.275642 10.887221 54.413334 -61.438213 -72.484654 9.692720 -7.628531 19.286970 -20.052843 -75.103412 17.150082 -97.469919 84.941772 -100.173359 -7.474965 -7.844832 -0.748965 0.046518 -0.216666 0.026074 2.862933 -74.777686 13.704892 78.552261 76.701477 76.330157 -10.762180 -5.397864 3.355449 0.075243 0.303300 0.036757
-6.379763 45.780293 24.338685 161.936073 -12.996024 0.291018 3.440036 8.005583 0.279483 0.176774 0.412556 0.017795 0.308620 0.724097 0.029123 3.231938 7.491391 0.490682 -1.652637 22.369736 -0.420863 -1.678221 -1.787954 -0.074465 4.604304 2.263503 -1.830336 -1.887326 -15.723133 -4.235251 -36.354283 -77.067687 48.362611 -11.592456 -8.844299 -25.820323 -10.376804 -0.865966 -5.207537 14.543945 -14.284631 10.890565 54.397836 -61.431763 -72.485869 9.696973 -7.632792 19.288682 -20.054112 -75.102225 17.140148 -97.536693 84.938686 -100.243035 -7.458548 -7.847033 -0.746247 0.047622 -0.217574 0.025564 2.827803 -74.772415 13.728095 78.550365 76.703425 76.318934 -10.759955 -5.394761 3.357255 0.066301 0.302012 0.034908
-6.381520 45.780262 24.338471 161.943138 -12.992817 0.288629 3.433159 7.998882 0.281326 0.176150 0.412380 0.017966 0.308698 0.725817 0.028746 3.231545 7.488534 0.492321 -1.648421 22.374648 -0.419844 -1.673963 -1.782219 -0.074397 4.606290 2.268667 -1.832464 -1.879734 -15.721560 -4.235477 -36.412932 -77.082899 48.422667 -11.591807 -8.838470 -25.836419 -10.369017 -0.863017 -5.212285 14.540391 -14.285846 10.894463 54.395918 -61.429549 -72.486933 9.697272 -7.639469 19.285716 -20.064251 -75.106451 17.141933 -97.562733 84.940682 -100.270045 -7.448528 -7.845168 -0.744451 0.048774 -0.218546 0.024580 2.811581 -74.775870 13.736850 78.540173 76.706345 76.304010 -10.755250 -5.390056 3.360821 0.067224 0.299234 0.032844
